<svg width="40" height="40" viewBox="0 0 40 40" fill="none" xmlns="http://www.w3.org/2000/svg">
<path fill-rule="evenodd" clip-rule="evenodd" d="M4.16988 37.6599C6.16852 39.22 8.66682 40 11.6648 40C13.7724 40 15.6893 39.5737 17.4154 38.7211C19.1415 37.8503 20.5405 36.4898 21.6125 34.6395C22.1213 33.7868 22.4574 32.9614 22.6209 32.1633C22.7265 31.6888 22.8015 31.199 22.8457 30.6939H30.5294L33.241 39.1837H40L27.6266 0H16.2707V26.3673C16.2707 27.4376 16.2435 28.381 16.189 29.1973C16.1526 29.9955 16.0073 30.6848 15.7529 31.2653C15.335 32.1723 14.6991 32.8345 13.8451 33.2517C12.9911 33.6508 12.1826 33.8503 11.4195 33.8503C10.2566 33.8503 9.19373 33.4512 8.23075 32.6531C7.26777 31.8549 6.68635 30.9025 6.48649 29.7959L0 31.3469C0.799455 33.9955 2.18942 36.0998 4.16988 37.6599ZM22.9207 6.87158V24.5714H28.5739L22.9207 6.87158Z" fill="#222"/>
</svg>
